<?xml version="1.0" encoding="iso-8859-1"?>
<!-- Uploaded to: SVG Repo, www.svgrepo.com, Generator: SVG Repo Mixer Tools -->
<svg fill="#000000" height="800px" width="800px" version="1.1" id="Capa_1" xmlns="http://www.w3.org/2000/svg" xmlns:xlink="http://www.w3.org/1999/xlink" 
	 viewBox="0 0 807.953 807.953" xml:space="preserve">
<g>
	<g>
		<path d="M794.507,395.586c-26.387-62.997-85.906-103.704-151.637-103.704c-20.37,0-40.241,3.995-59.057,11.877
			c-34.791,14.572-63.058,41.839-79.611,76.22c-16.564-5.661-33.95-8.611-51.122-8.611c-17.22,0-34.077,2.889-50.251,8.537
			c-8.458-3.984-17.441-7.142-26.88-9.349c-39.484-9.231-79.164-0.077-110.807,22.056l-0.002-0.002
			c-18.558-33.867-50.069-59.659-89.551-68.887c-76.017-17.767-152.782,32.604-171.46,112.51
			c-10.262,43.899-0.865,87.554,22.283,120.949l0.002,0.022c0,0,131.274,166.237,131.626,166.675
			c6.33,7.909,15.222,13.852,25.849,16.336c10.658,2.491,21.292,1.097,30.485-3.22l149.096-70.761
			c14.062,11.12,29.855,19.991,46.887,26.059c0.536,0.21,1.083,0.396,1.642,0.554c93.014,26.357,204,57.805,204.447,57.927
			c5.621,1.554,11.413,2.342,17.211,2.342c8.521,0,16.841-1.677,24.737-4.982c13.451-5.634,24.297-15.368,31.404-28.213
			L791.85,533.751c0.175-0.32,0.339-0.646,0.495-0.976C812.373,490.13,813.161,440.124,794.507,395.586z M760.87,517.417
			L659.123,703.03c-3.22,5.818-8.149,10.246-14.256,12.805c-6.048,2.537-12.812,2.922-19.037,1.2
			c-2.257-0.633-190.528-53.983-203.585-57.682c-7.768-2.76-15.193-6.293-22.246-10.448l6.179-2.933
			c35.555-19.678,63.334-54.659,73.594-98.556c12.4-53.057-3.949-105.771-38.573-140.421c3.931-0.398,7.893-0.6,11.881-0.6
			c18.017,0,36.391,4.203,53.136,12.153c4.496,2.134,9.69,2.25,14.274,0.331c4.59-1.922,8.145-5.706,9.778-10.408
			c11.612-33.438,35.434-59.151,67.075-72.405c14.51-6.076,29.826-9.158,45.527-9.158c51.577,0,98.418,32.269,119.335,82.213
			C776.969,444.371,776.475,483.813,760.87,517.417z"/>
		<path d="M440.227,230.619h-0.002c-10.625-6.271-23.489-8.211-35.837-4.301c-23.778,7.528-36.636,33.893-28.721,58.886
			c4.347,13.731,14.055,24.185,25.864,29.581l0.004,0.004c0,0,63.187,24.22,63.354,24.284c3.027,1.14,6.442,1.322,9.765,0.267
			c3.336-1.053,6.028-3.174,7.845-5.86l37.813-56.31c6.549-11.207,8.469-25.348,4.122-39.079
			c-7.913-24.991-33.604-39.151-57.382-31.621C454.702,210.384,445.301,219.374,440.227,230.619z"/>
		<path d="M220.847,238.015c0,0,37.435,36.086,37.98,36.614c0.055,0.055,0.109,0.109,0.166,0.162
			c4.724,4.505,10.899,7.318,17.332,7.915c0.937,0.092,1.869,0.136,2.791,0.136c0.002,0,0.002,0,0.002,0
			c5.615,0,11.085-1.618,15.87-4.717l44.273-28.9c0.304-0.199,0.604-0.409,0.895-0.626c12.378-9.231,20.331-23.509,21.815-39.177
			c2.83-29.92-18.407-56.496-47.34-59.239c-9.003-0.847-18.054,0.718-26.175,4.426c-7.311-5.166-15.857-8.405-24.831-9.253
			c-1.611-0.153-3.244-0.23-4.857-0.23c-27.403,0-50.087,21.292-52.759,49.529c-1.478,15.607,3.61,31.067,13.961,42.452
			C220.249,237.417,220.543,237.722,220.847,238.015z M240.873,197.953c0.998-10.548,9.64-18.704,19.451-17.732
			c4.732,0.447,8.983,2.92,11.973,6.965c2.957,4.001,7.477,6.556,12.433,7.026c4.945,0.457,9.872-1.193,13.53-4.57
			c3.66-3.38,8.384-5.028,13.07-4.597c9.71,0.922,16.787,10.373,15.776,21.071c-0.538,5.669-3.27,10.791-7.521,14.125
			l-39.777,25.965c-4.22-4.067-13.543-13.057-34.189-32.963C242.062,209.169,240.337,203.623,240.873,197.953z"/>
		<path d="M343.604,119.855c0,0,39.333,37.919,39.436,38.019c1.891,1.804,4.373,3.014,7.175,3.275
			c2.811,0.269,5.481-0.457,7.679-1.88l45.856-29.933c8.401-6.265,14.287-16.172,15.381-27.749
			c1.992-21.071-12.637-39.692-32.685-41.592c-10.415-0.985-20.239,2.734-27.554,9.491c-5.921-8.011-14.872-13.508-25.282-14.491
			c-20.046-1.902-37.914,13.644-39.908,34.714c-1.097,11.577,2.826,22.408,9.9,30.141L343.604,119.855z"/>
	</g>
</g>
</svg>