<?xml version="1.0" standalone="no"?>
<!DOCTYPE svg PUBLIC "-//W3C//DTD SVG 20010904//EN"
 "http://www.w3.org/TR/2001/REC-SVG-20010904/DTD/svg10.dtd">
<svg version="1.0" xmlns="http://www.w3.org/2000/svg"
 width="512.000000pt" height="512.000000pt" viewBox="0 0 512.000000 512.000000"
 preserveAspectRatio="xMidYMid meet">

<g transform="translate(0.000000,512.000000) scale(0.100000,-0.100000)"
fill="#000000" stroke="none">
<path d="M3875 5101 c-120 -44 -398 -220 -600 -381 -174 -138 -314 -265 -795
-714 -788 -739 -1299 -1237 -1331 -1298 -21 -41 -25 -120 -9 -165 6 -15 133
-149 283 -298 150 -148 415 -418 588 -599 554 -579 1384 -1383 1588 -1537 174
-131 285 -142 298 -29 11 103 -57 210 -313 490 -481 527 -723 769 -1716 1719
-181 172 -328 314 -328 316 0 1 66 60 148 131 352 308 446 398 1441 1389 574
572 829 832 842 860 21 46 25 105 7 123 -16 16 -44 15 -103 -7z"/>
</g>
</svg>
