<?xml version="1.0" standalone="no"?>
<!DOCTYPE svg PUBLIC "-//W3C//DTD SVG 20010904//EN"
 "http://www.w3.org/TR/2001/REC-SVG-20010904/DTD/svg10.dtd">
<svg version="1.0" xmlns="http://www.w3.org/2000/svg"
 width="512.000000pt" height="512.000000pt" viewBox="0 0 512.000000 512.000000"
 preserveAspectRatio="xMidYMid meet">

<g transform="translate(0.000000,512.000000) scale(0.100000,-0.100000)"
fill="#000000" stroke="none">
<path d="M1125 4980 c-211 -20 -410 -89 -577 -200 -85 -58 -253 -228 -313
-319 -203 -308 -279 -699 -205 -1060 58 -285 186 -513 429 -763 226 -233 393
-356 925 -684 554 -341 737 -469 903 -629 l84 -80 -44 -55 c-63 -78 -186 -265
-218 -330 -118 -238 -117 -520 3 -638 171 -170 419 -80 640 233 145 204 181
433 103 641 -15 38 -29 76 -31 84 -8 25 171 176 681 575 573 448 833 674 1044
909 138 153 185 212 267 336 137 209 235 435 281 650 28 133 24 356 -10 482
-49 184 -137 339 -263 464 -214 212 -510 324 -854 324 -262 0 -481 -59 -693
-186 -180 -108 -387 -302 -517 -484 -34 -47 -63 -85 -65 -85 -1 0 -35 42 -74
93 -374 483 -971 772 -1496 722z m218 -350 c236 -23 426 -91 632 -228 187
-123 335 -276 458 -472 127 -201 207 -280 287 -280 62 0 97 33 163 155 149
274 306 457 507 589 282 186 629 237 908 134 147 -54 315 -192 391 -321 197
-335 90 -755 -311 -1222 -129 -149 -421 -433 -603 -585 -83 -69 -303 -244
-489 -390 -187 -146 -408 -322 -492 -392 -84 -69 -158 -129 -164 -133 -7 -4
-47 27 -98 77 -209 202 -440 367 -912 653 -478 290 -660 418 -848 599 -334
322 -462 645 -412 1045 54 425 363 730 783 770 45 5 84 9 87 10 3 0 54 -4 113
-9z m1191 -3853 c-22 -69 -107 -207 -127 -207 -10 0 5 73 30 145 13 38 42 101
66 139 l42 71 3 -48 c2 -27 -4 -72 -14 -100z"/>
</g>
</svg>
