<?xml version="1.0" standalone="no"?>
<!DOCTYPE svg PUBLIC "-//W3C//DTD SVG 20010904//EN"
 "http://www.w3.org/TR/2001/REC-SVG-20010904/DTD/svg10.dtd">
<svg version="1.0" xmlns="http://www.w3.org/2000/svg"
 width="512.000000pt" height="512.000000pt" viewBox="0 0 512.000000 512.000000"
 preserveAspectRatio="xMidYMid meet">

<g transform="translate(0.000000,512.000000) scale(0.100000,-0.100000)"
fill="#000000" stroke="none">
<path d="M2525 5102 c-22 -11 -123 -98 -225 -193 -102 -96 -244 -223 -315
-284 -687 -581 -1111 -962 -1534 -1379 -293 -288 -351 -364 -351 -456 0 -76
82 -101 194 -60 71 27 147 77 280 185 l108 88 -6 -59 c-30 -293 -31 -662 -1
-1398 14 -334 14 -355 -5 -485 -40 -281 -59 -623 -40 -716 33 -162 163 -298
321 -334 56 -13 864 -14 942 -1 115 19 219 85 279 179 36 58 41 158 8 191 -31
31 -59 24 -116 -30 -85 -80 -145 -96 -247 -65 -126 38 -315 61 -669 80 -74 5
-121 11 -127 19 -8 9 -8 124 -3 357 4 189 5 434 2 544 -3 110 -2 268 3 350 5
83 9 361 10 620 0 509 -17 837 -49 930 l-16 49 48 41 c223 185 756 674 1314
1203 l265 251 166 -172 c264 -273 625 -609 1259 -1172 228 -202 507 -452 619
-554 111 -102 216 -194 231 -204 33 -21 119 -32 139 -18 69 46 -124 363 -431
708 -232 260 -1726 1675 -1868 1769 -52 35 -132 41 -185 16z"/>
<path d="M4403 2760 c-49 -20 -103 -139 -122 -272 -22 -149 -44 -806 -46
-1414 -2 -616 -5 -665 -39 -693 -18 -15 -801 -35 -827 -21 -10 6 -22 23 -26
38 -3 15 3 160 15 322 30 401 45 763 41 950 -4 152 -5 157 -37 222 -41 84
-126 164 -208 198 l-59 25 -454 3 c-292 2 -472 -1 -503 -8 -156 -33 -283 -161
-317 -318 -7 -36 -11 -245 -11 -646 0 -636 0 -636 51 -707 34 -48 67 -37 101
32 83 168 168 665 194 1136 5 98 10 125 24 138 16 14 55 15 421 3 l404 -13 -4
-676 c-3 -525 -1 -687 9 -730 30 -125 104 -218 218 -272 l67 -32 355 -8 c195
-4 416 -6 490 -4 121 3 141 6 193 30 115 52 212 181 253 332 33 126 29 1429
-7 1975 -21 326 -75 451 -176 410z"/>
</g>
</svg>
