<?xml version="1.0" standalone="no"?>
<!DOCTYPE svg PUBLIC "-//W3C//DTD SVG 20010904//EN"
 "http://www.w3.org/TR/2001/REC-SVG-20010904/DTD/svg10.dtd">
<svg version="1.0" xmlns="http://www.w3.org/2000/svg"
 width="512.000000pt" height="512.000000pt" viewBox="0 0 512.000000 512.000000"
 preserveAspectRatio="xMidYMid meet">

<g transform="translate(0.000000,512.000000) scale(0.100000,-0.100000)"
fill="#000000" stroke="none">
<path d="M4402 4799 c-63 -25 -140 -97 -174 -162 l-24 -47 -38 46 c-41 48
-121 94 -166 94 -59 0 -106 -22 -157 -75 -105 -107 -110 -245 -15 -391 77
-117 252 -259 388 -315 l57 -23 18 23 c12 14 25 20 36 17 34 -11 119 42 235
148 121 110 176 184 219 295 60 159 12 314 -120 383 -45 24 -65 28 -130 27
-51 0 -93 -7 -129 -20z m187 -165 c55 -46 64 -140 21 -224 -29 -57 -64 -94
-173 -182 -96 -78 -157 -152 -157 -190 0 -26 -14 -23 -78 18 -173 110 -302
282 -302 402 0 56 16 72 83 79 70 7 75 2 112 -110 28 -82 51 -107 97 -107 35
0 58 24 58 61 0 42 53 149 102 204 50 57 86 74 155 75 41 0 58 -5 82 -26z"/>
<path d="M811 4229 c-122 -24 -234 -149 -272 -305 -6 -27 -13 -50 -14 -52 -2
-2 -32 13 -68 33 -153 84 -331 77 -414 -18 -39 -45 -50 -95 -35 -167 54 -257
366 -460 689 -448 119 4 112 -1 198 128 180 271 237 547 149 728 -42 87 -125
123 -233 101z m93 -167 c25 -23 46 -74 46 -115 0 -99 -75 -289 -184 -464 -65
-105 -65 -105 -171 -78 -141 37 -324 160 -383 258 -24 39 -34 133 -17 147 17
14 143 -3 186 -25 19 -10 71 -55 116 -101 88 -91 115 -102 154 -63 18 18 20
27 13 63 -4 22 -8 79 -8 126 -1 75 3 91 28 137 66 120 159 169 220 115z"/>
<path d="M2881 4009 c-78 -13 -186 -69 -255 -131 -151 -135 -286 -385 -341
-630 l-17 -77 -57 77 c-252 340 -625 400 -881 142 -120 -120 -174 -259 -174
-445 0 -134 24 -229 89 -354 164 -318 558 -587 990 -676 111 -23 294 -30 380
-15 77 13 83 13 136 4 21 -3 46 -1 59 6 23 12 242 339 355 530 94 159 196 366
249 501 157 407 138 697 -59 894 -133 133 -318 201 -474 174z m172 -203 c99
-36 171 -120 214 -252 23 -69 26 -96 27 -219 1 -117 -3 -155 -23 -230 -53
-205 -146 -391 -359 -725 -161 -252 -232 -368 -232 -381 0 -6 -14 -8 -32 -5
-18 3 -62 11 -98 16 -183 30 -416 107 -580 191 -326 166 -532 386 -585 623
-21 94 -16 256 9 331 54 157 196 237 364 206 92 -17 157 -54 232 -130 61 -63
87 -100 229 -331 62 -100 86 -119 135 -106 39 10 51 48 32 105 -13 40 -13 58
0 141 39 263 131 466 275 609 145 145 277 198 392 157z"/>
<path d="M1023 1846 c-104 -34 -195 -114 -241 -214 -24 -50 -27 -70 -27 -157
0 -55 3 -114 7 -131 l7 -31 -82 41 c-78 39 -87 41 -172 41 -82 0 -97 -3 -157
-33 -76 -37 -120 -82 -157 -162 -36 -77 -37 -222 -2 -323 76 -222 280 -385
580 -464 129 -34 359 -43 478 -19 44 9 90 16 102 16 18 0 28 13 50 63 65 145
91 309 91 573 0 475 -69 693 -246 780 -66 32 -167 41 -231 20z m193 -241 c54
-16 106 -62 124 -110 16 -42 13 -365 -6 -543 -8 -81 -17 -218 -21 -305 -6
-155 -7 -158 -27 -153 -12 3 -112 19 -224 36 -295 45 -391 75 -518 166 -80 56
-136 121 -177 203 -26 54 -32 77 -32 131 1 81 26 158 66 196 27 26 37 29 97
29 56 0 77 -5 132 -33 72 -38 147 -91 226 -162 60 -55 88 -67 110 -49 19 16
15 44 -19 124 -46 108 -70 221 -65 304 5 88 35 158 71 166 85 18 202 18 263 0z"/>
<path d="M4739 1746 c-138 -53 -237 -148 -314 -303 l-32 -63 -43 64 c-109 169
-284 248 -443 202 -82 -24 -136 -69 -177 -150 -31 -61 -35 -78 -38 -164 -9
-228 96 -461 291 -649 197 -189 418 -283 666 -282 l96 0 70 73 c149 156 249
387 290 671 31 213 10 323 -81 423 -36 40 -54 69 -54 86 0 16 -13 41 -34 63
-31 34 -38 37 -97 40 -37 1 -79 -3 -100 -11z m125 -132 c9 -8 16 -20 16 -25 0
-5 16 -34 37 -66 65 -102 76 -179 47 -319 -33 -162 -102 -319 -257 -584 l-73
-125 -42 3 c-58 3 -204 57 -287 105 -210 120 -372 329 -440 564 -30 102 -35
180 -14 210 15 21 101 95 148 125 36 24 82 22 122 -5 49 -33 120 -127 153
-204 77 -179 94 -210 114 -215 44 -12 63 12 87 108 53 211 173 387 292 430 51
18 78 17 97 -2z"/>
<path d="M2896 1215 c-22 -8 -51 -23 -65 -33 -38 -28 -82 -104 -88 -151 -3
-23 -9 -41 -13 -41 -4 0 -22 8 -41 18 -53 27 -190 24 -250 -5 -181 -90 -212
-303 -68 -467 50 -56 225 -175 305 -207 82 -33 251 -35 304 -3 21 12 35 28 35
40 0 18 -8 19 -105 20 -124 0 -180 18 -295 95 -163 110 -232 234 -190 345 31
81 121 127 205 104 48 -13 115 -70 124 -105 7 -28 41 -42 62 -24 11 9 13 26 8
74 -4 38 -2 83 6 115 15 62 36 74 129 68 54 -4 67 -8 87 -31 53 -62 65 -295
25 -490 -19 -93 -22 -127 -15 -165 8 -43 12 -47 39 -50 25 -2 35 4 56 35 63
90 85 231 69 440 -20 262 -62 363 -172 413 -51 23 -98 24 -152 5z"/>
</g>
</svg>
