<?xml version="1.0" standalone="no"?>
<!DOCTYPE svg PUBLIC "-//W3C//DTD SVG 20010904//EN"
 "http://www.w3.org/TR/2001/REC-SVG-20010904/DTD/svg10.dtd">
<svg version="1.0" xmlns="http://www.w3.org/2000/svg"
 width="512.000000pt" height="512.000000pt" viewBox="0 0 512.000000 512.000000"
 preserveAspectRatio="xMidYMid meet">

<g transform="translate(0.000000,512.000000) scale(0.100000,-0.100000)"
fill="#000000" stroke="none">
<path d="M2700 5110 c-168 -5 -557 -14 -865 -19 -558 -10 -690 -19 -888 -56
-109 -21 -171 -50 -217 -102 -38 -43 -80 -134 -80 -172 0 -13 -17 -24 -62 -41
-311 -110 -400 -355 -163 -445 25 -10 45 -21 45 -25 0 -3 -11 -17 -24 -29 -40
-37 -68 -117 -74 -206 -8 -133 26 -241 98 -312 l37 -37 -53 -51 c-108 -106
-111 -256 -9 -390 20 -26 35 -48 33 -49 -131 -79 -188 -155 -206 -272 -22
-137 22 -246 131 -325 l38 -28 -41 -21 c-57 -29 -121 -95 -151 -155 -20 -41
-24 -65 -24 -135 0 -73 4 -92 28 -138 30 -56 93 -124 139 -148 34 -18 35 -27
6 -41 -44 -21 -103 -81 -128 -129 -36 -71 -40 -187 -10 -268 22 -58 96 -147
145 -174 19 -11 18 -13 -15 -39 -53 -42 -85 -80 -117 -137 -25 -46 -28 -60
-28 -151 0 -111 9 -136 71 -205 72 -80 183 -122 320 -122 46 0 84 -4 84 -8 0
-15 85 -92 124 -112 94 -48 161 -62 386 -78 80 -6 276 -24 435 -40 408 -41
582 -52 605 -40 37 20 38 90 1 110 -62 33 -273 66 -571 90 -74 6 -160 15 -190
21 -30 5 -136 14 -235 19 -196 10 -276 26 -344 68 -82 50 -106 145 -93 365 l7
129 74 -38 c85 -44 171 -120 171 -151 0 -12 -11 -35 -25 -51 -31 -37 -34 -87
-6 -102 76 -40 173 42 173 146 0 113 -149 258 -334 325 -55 21 -57 23 -63 63
-3 22 -5 128 -3 233 l3 193 62 -29 c72 -34 144 -97 178 -155 14 -25 28 -71 34
-116 8 -57 15 -79 32 -93 26 -21 55 -15 86 19 112 123 -85 422 -333 504 l-66
22 7 212 c4 116 8 212 9 213 6 8 147 -63 183 -93 74 -61 85 -85 77 -177 -6
-66 -4 -80 11 -97 36 -40 98 -14 134 57 22 43 13 125 -20 192 -58 116 -168
204 -313 252 l-69 23 6 224 c3 123 8 226 11 229 8 8 127 -58 166 -93 60 -54
79 -105 70 -184 -10 -87 2 -114 53 -118 32 -3 43 2 67 28 62 66 60 165 -6 276
-62 106 -167 188 -316 248 l-38 15 0 195 c0 107 3 197 7 199 18 11 131 -53
176 -98 67 -69 97 -136 106 -236 8 -89 21 -109 72 -109 67 0 93 72 70 190 -37
187 -172 327 -366 381 l-60 16 -6 64 c-17 166 -30 371 -25 376 3 4 33 -1 67
-11 147 -41 249 -121 249 -196 0 -23 -9 -59 -21 -81 -27 -53 -22 -90 14 -107
38 -19 77 -2 112 47 50 72 57 139 24 226 -43 116 -193 222 -365 260 -44 10
-84 19 -90 20 -12 4 -24 118 -24 235 l0 78 86 12 c124 18 238 3 301 -38 33
-21 41 -65 29 -170 -9 -86 -8 -94 10 -111 37 -36 62 -36 98 2 39 41 58 100 57
178 0 80 -31 149 -93 204 -74 66 -125 80 -301 80 -81 0 -147 3 -147 6 0 12 47
49 80 63 48 19 158 34 400 51 413 29 808 37 1745 33 903 -4 933 -5 1022 -25
51 -12 106 -29 123 -39 76 -46 99 -176 76 -450 -31 -377 -40 -668 -28 -897 19
-333 56 -601 89 -624 38 -28 113 -1 128 46 3 10 -6 87 -19 172 -45 279 -51
353 -51 649 1 208 5 326 18 435 27 229 33 474 13 558 -48 203 -170 294 -443
328 -110 13 -930 19 -1293 9z m-2066 -552 c3 -13 8 -71 11 -130 6 -105 6 -108
-15 -108 -23 0 -125 48 -171 81 -16 11 -29 29 -29 39 0 26 63 85 123 115 63
31 75 31 81 3z m39 -480 c21 -332 21 -347 3 -354 -27 -10 -96 46 -129 105 -51
90 -49 218 5 287 18 22 87 63 109 64 3 0 9 -46 12 -102z m27 -684 c0 -212 1
-211 -86 -151 -122 84 -142 191 -53 272 43 38 117 77 131 69 4 -3 8 -88 8
-190z m-3 -506 c-4 -95 -7 -203 -7 -239 l0 -67 -67 25 c-110 39 -171 93 -202
176 -49 129 73 276 228 277 l54 0 -6 -172z m-16 -668 c-1 -118 -5 -218 -8
-222 -10 -17 -91 -7 -140 17 -69 35 -148 120 -163 176 -14 52 -7 104 18 139
47 63 160 111 252 107 l44 -2 -3 -215z m-11 -600 l0 -230 -42 0 c-84 0 -223
112 -249 201 -23 74 20 154 107 205 51 30 117 52 157 53 l27 1 0 -230z m-6
-537 c-4 -105 -2 -192 5 -232 6 -36 9 -67 6 -69 -8 -8 -110 21 -155 44 -98 49
-162 156 -140 234 29 100 147 187 258 189 l33 1 -7 -167z"/>
<path d="M2260 4401 c-97 -11 -178 -27 -263 -54 -54 -17 -72 -28 -83 -49 -18
-35 -5 -65 34 -75 42 -12 371 -9 521 5 165 15 684 16 841 1 131 -11 259 -32
374 -59 61 -15 84 -17 100 -8 33 17 45 40 46 80 0 28 -7 42 -31 62 -17 14 -40
28 -52 31 -73 16 -255 47 -332 56 -110 12 -1050 21 -1155 10z"/>
<path d="M3195 3835 c-16 -2 -115 -9 -220 -15 -355 -21 -707 -66 -967 -125
-139 -31 -162 -52 -113 -100 23 -24 30 -25 147 -25 136 0 242 9 553 45 451 52
761 58 943 16 222 -51 272 -46 272 24 0 62 -93 123 -237 155 -83 19 -307 33
-378 25z"/>
<path d="M3250 3193 c-25 -1 -124 -9 -220 -17 -96 -8 -229 -18 -295 -21 -193
-9 -591 -34 -703 -45 -168 -16 -236 -68 -137 -106 43 -16 79 -16 563 -4 284 7
688 14 897 16 350 2 380 4 392 20 18 25 16 69 -4 90 -60 59 -248 85 -493 67z"/>
<path d="M4228 2648 c-220 -175 -429 -408 -1038 -1158 -195 -239 -338 -393
-450 -483 -88 -71 -100 -84 -100 -111 0 -11 -9 -29 -19 -40 -11 -12 -29 -59
-41 -106 -45 -176 -92 -335 -151 -505 -39 -113 -59 -184 -55 -199 9 -37 53
-50 122 -36 136 28 274 96 474 231 191 129 260 185 260 209 0 24 740 768 1075
1080 449 418 509 482 563 598 21 46 27 72 27 132 0 68 -4 84 -38 152 -60 123
-177 216 -318 253 -30 8 -69 15 -88 15 -23 0 -41 8 -57 25 -13 14 -32 25 -43
25 -11 0 -66 -37 -123 -82z m240 -103 c34 -10 62 -22 62 -27 0 -12 -67 -102
-154 -208 -97 -119 -227 -259 -471 -510 -115 -118 -268 -281 -339 -360 -71
-80 -208 -229 -304 -332 -203 -218 -274 -305 -304 -371 -19 -40 -23 -45 -31
-30 -29 54 -98 103 -165 118 l-33 7 58 35 c154 92 274 219 493 518 83 115 295
381 443 557 182 218 366 410 515 539 102 88 116 97 140 89 15 -4 55 -16 90
-25z m219 -128 c112 -118 93 -223 -75 -399 -95 -100 -522 -497 -817 -759 -327
-291 -491 -473 -590 -652 -20 -36 -43 -68 -52 -71 -10 -4 -28 6 -50 29 -19 19
-52 45 -75 56 l-41 21 40 41 c22 23 83 96 136 162 53 66 155 183 228 260 73
77 198 216 278 310 80 93 283 309 451 480 290 294 382 397 467 520 21 30 41
54 44 55 3 0 29 -24 56 -53z m-1897 -1697 c26 -18 41 -49 66 -135 8 -26 17
-32 63 -43 61 -15 97 -36 112 -64 12 -23 18 -18 -130 -119 -95 -66 -104 -70
-114 -53 -23 42 -95 104 -121 104 -32 0 -32 2 -1 119 14 52 28 123 31 158 l7
65 29 -6 c16 -3 42 -15 58 -26z"/>
<path d="M2320 2534 c-392 -33 -502 -67 -408 -124 51 -31 106 -34 363 -21 235
12 259 11 523 -15 57 -6 65 -5 87 16 27 25 33 67 15 100 -28 53 -268 71 -580
44z"/>
<path d="M4363 1364 c-16 -24 -16 -39 -4 -198 7 -94 16 -251 18 -348 l5 -178
-39 -39 c-23 -23 -57 -44 -83 -52 -54 -16 -264 -18 -507 -5 -152 8 -175 7
-197 -7 -59 -39 -37 -97 47 -122 118 -34 539 -47 668 -20 76 16 160 53 196 87
12 11 32 43 44 71 21 45 24 72 27 203 4 172 -12 466 -29 534 -19 73 -43 100
-89 100 -32 0 -43 -5 -57 -26z"/>
</g>
</svg>
