<?xml version="1.0" standalone="no"?>
<!DOCTYPE svg PUBLIC "-//W3C//DTD SVG 20010904//EN"
 "http://www.w3.org/TR/2001/REC-SVG-20010904/DTD/svg10.dtd">
<svg version="1.0" xmlns="http://www.w3.org/2000/svg"
 width="512.000000pt" height="512.000000pt" viewBox="0 0 512.000000 512.000000"
 preserveAspectRatio="xMidYMid meet">

<g transform="translate(0.000000,512.000000) scale(0.100000,-0.100000)"
fill="#000000" stroke="none">
<path d="M3797 3750 c-14 -16 -28 -46 -31 -67 -13 -95 -19 -172 -25 -355 -3
-108 -8 -199 -11 -202 -3 -3 -30 1 -60 9 -146 40 -263 48 -730 50 -523 3 -539
4 -1355 105 -647 81 -750 90 -1101 97 l-290 6 -34 -31 c-64 -56 -46 -107 109
-302 94 -119 322 -374 520 -582 l44 -47 -56 -69 c-32 -38 -123 -141 -205 -228
-414 -444 -555 -609 -568 -660 -10 -38 7 -84 39 -108 27 -20 40 -21 275 -21
263 0 374 11 612 61 348 74 677 185 1269 429 723 297 981 392 1291 473 134 35
320 76 325 71 1 -2 0 -80 -4 -174 -4 -93 -4 -257 -1 -362 l5 -193 27 -27 c21
-21 38 -28 68 -28 38 0 47 7 176 135 244 242 597 645 798 910 170 223 236 321
236 350 0 29 -35 88 -60 101 -8 4 -166 82 -350 172 -405 199 -518 269 -755
467 -74 62 -118 68 -158 20z m242 -318 c127 -91 298 -187 577 -324 188 -92
262 -133 256 -141 -5 -7 -51 -68 -102 -137 -177 -237 -397 -498 -649 -772
l-126 -137 -6 68 c-4 37 -10 171 -14 297 -3 126 -9 236 -11 245 -3 9 -19 23
-37 30 -18 7 -40 19 -50 28 -16 14 -31 13 -145 -3 -379 -54 -782 -182 -1382
-441 -772 -333 -1120 -460 -1460 -535 -141 -31 -350 -60 -480 -67 l-114 -6 90
104 c222 258 360 432 468 594 41 61 75 102 88 105 12 3 30 18 41 32 17 23 19
32 9 52 -16 37 -138 200 -276 370 -229 283 -314 391 -310 395 1 2 99 -2 216
-8 238 -13 558 -45 968 -96 595 -74 894 -105 1235 -130 459 -33 1067 -58 1100
-45 46 18 49 92 5 128 -20 17 -20 22 -10 227 6 116 13 216 15 223 6 15 4 16
104 -56z"/>
</g>
</svg>
