<?xml version="1.0" standalone="no"?>
<!DOCTYPE svg PUBLIC "-//W3C//DTD SVG 20010904//EN"
 "http://www.w3.org/TR/2001/REC-SVG-20010904/DTD/svg10.dtd">
<svg version="1.0" xmlns="http://www.w3.org/2000/svg"
 width="512.000000pt" height="512.000000pt" viewBox="0 0 512.000000 512.000000"
 preserveAspectRatio="xMidYMid meet">

<g transform="translate(0.000000,512.000000) scale(0.100000,-0.100000)"
fill="#000000" stroke="none">
<path d="M1870 5106 c-60 -18 -440 -171 -499 -201 -104 -52 -187 -176 -197
-295 -5 -53 1 -98 35 -248 l40 -184 -124 -122 -124 -123 -163 40 c-264 64
-375 53 -488 -49 -58 -53 -80 -90 -145 -248 -30 -75 -70 -169 -89 -209 -57
-126 -69 -172 -64 -251 6 -85 38 -164 91 -223 20 -22 106 -86 191 -142 l155
-103 -3 -166 -4 -166 -158 -95 c-88 -52 -176 -113 -200 -138 -83 -85 -124
-213 -104 -324 10 -53 166 -463 208 -546 28 -54 112 -130 179 -160 91 -42 167
-42 363 1 91 20 172 36 180 36 18 0 230 -212 230 -230 0 -7 -19 -92 -41 -188
-35 -149 -41 -186 -36 -245 10 -118 77 -229 175 -291 48 -30 462 -204 527
-222 135 -37 299 16 382 123 16 21 70 102 119 180 l89 143 170 -1 170 0 100
-160 c56 -90 118 -176 140 -196 86 -76 217 -110 322 -84 45 12 274 107 445
185 147 67 218 160 226 297 4 69 1 87 -38 200 -78 231 -147 348 -188 323 -34
-22 -44 -97 -38 -305 5 -178 4 -198 -12 -212 -9 -9 -73 -36 -142 -60 -69 -25
-171 -62 -227 -82 -57 -20 -109 -35 -117 -32 -8 3 -60 84 -117 179 -144 245
-155 261 -187 280 -25 15 -55 17 -228 15 -123 -1 -238 3 -300 11 -96 13 -104
13 -146 -6 -41 -18 -56 -37 -182 -228 -76 -115 -140 -211 -142 -213 -4 -4
-405 167 -417 179 -4 4 17 111 48 239 30 127 55 244 55 259 -1 54 -35 106
-116 174 -81 68 -178 166 -272 276 -62 72 -100 95 -157 94 -23 -1 -142 -24
-265 -52 -123 -27 -225 -49 -227 -47 -5 6 -173 419 -173 427 0 4 91 64 202
133 213 132 245 155 257 190 4 12 7 167 6 344 l-1 322 -28 30 c-16 17 -113 83
-215 147 -102 65 -194 125 -204 134 -18 17 -16 25 73 236 50 121 95 223 100
228 4 4 119 -17 259 -50 307 -70 298 -71 391 43 100 123 148 169 256 249 99
72 134 114 134 159 0 9 -18 115 -39 234 -22 119 -41 227 -43 241 -3 23 7 28
217 106 l219 81 109 -186 c187 -320 160 -301 432 -298 114 1 232 -4 295 -12
126 -16 174 -7 223 43 17 18 83 112 146 209 62 98 117 180 122 183 8 4 352
-138 368 -152 2 -1 -20 -101 -49 -220 -29 -119 -52 -238 -52 -264 0 -60 22
-102 85 -159 141 -128 186 -174 264 -268 141 -171 153 -174 447 -109 115 25
216 46 225 46 11 0 37 -52 90 -185 41 -101 73 -186 70 -188 -2 -2 -90 -56
-196 -121 -105 -64 -205 -132 -222 -151 -44 -51 -52 -91 -43 -245 4 -74 3
-208 -2 -297 -13 -237 -18 -229 249 -398 94 -59 175 -113 182 -119 11 -10 -17
-85 -127 -333 l-18 -41 -214 54 c-282 71 -329 70 -408 -8 -54 -53 -279 -354
-286 -383 -9 -36 0 -41 54 -26 68 18 201 105 297 194 l83 77 219 -77 c253 -89
310 -98 386 -63 26 12 60 39 76 59 16 20 79 137 141 261 126 252 137 293 106
388 -25 73 -71 119 -246 240 l-155 108 1 55 c1 29 3 122 5 204 l3 151 169 99
c207 122 237 147 279 232 28 56 32 77 32 137 0 49 -6 82 -18 105 -10 19 -55
130 -101 247 -45 117 -96 232 -113 255 -59 80 -171 139 -262 139 -20 0 -123
-17 -228 -39 l-193 -38 -80 93 c-44 51 -98 107 -119 124 -22 18 -40 40 -40 51
0 11 21 102 46 202 54 216 56 286 10 381 -50 102 -102 138 -382 261 l-249 110
-100 0 c-90 0 -106 -3 -157 -29 -79 -40 -115 -80 -222 -251 l-93 -150 -168 3
c-92 1 -171 4 -175 7 -4 2 -49 74 -100 159 -101 171 -156 232 -245 272 -67 31
-178 40 -245 20z"/>
<path d="M2290 3585 c-142 -28 -309 -103 -417 -187 -71 -54 -182 -172 -233
-248 -331 -488 -181 -1183 327 -1517 125 -82 310 -157 419 -169 63 -8 138 21
155 60 18 38 -5 65 -118 134 -188 115 -307 220 -413 363 -149 201 -206 420
-166 631 26 136 64 216 158 336 61 76 139 138 244 191 184 93 378 105 584 34
91 -31 147 -71 238 -168 152 -162 216 -383 178 -604 -31 -178 -101 -308 -232
-430 -65 -61 -100 -83 -240 -152 -178 -88 -214 -118 -214 -174 0 -67 72 -118
182 -131 157 -18 438 113 603 280 235 238 335 566 274 896 -69 370 -337 679
-691 799 -183 62 -479 88 -638 56z"/>
</g>
</svg>
