<?xml version="1.0" standalone="no"?>
<!DOCTYPE svg PUBLIC "-//W3C//DTD SVG 20010904//EN"
 "http://www.w3.org/TR/2001/REC-SVG-20010904/DTD/svg10.dtd">
<svg version="1.0" xmlns="http://www.w3.org/2000/svg"
 width="1000.000000pt" height="1080.000000pt" viewBox="0 0 1000.000000 1080.000000"
 preserveAspectRatio="xMidYMid meet">
  <!-- Define the gradient -->
  <linearGradient id="myGradient" x1="0%" y1="0%" x2="100%" y2="0%">
    <stop offset="0%" stop-color="#00FFFF" />
    <stop offset="100%" stop-color="#FF1493" />
  </linearGradient>

<g transform="translate(0.000000,1080.000000) scale(0.100000,-0.100000)"
 fill="url(#myGradient)" stroke="none">
<path d="M4006 8750 c-369 -42 -679 -192 -941 -455 -183 -182 -294 -362 -375
-604 -61 -181 -75 -275 -74 -501 0 -221 17 -354 70 -570 73 -299 194 -590 374
-900 75 -129 244 -385 261 -396 17 -10 151 36 249 87 112 58 170 100 318 232
l110 99 -112 166 c-305 455 -455 845 -473 1222 -7 152 9 257 54 364 63 151
200 301 340 374 254 131 514 115 764 -50 102 -67 272 -227 364 -342 33 -41 62
-75 66 -75 3 -1 39 41 80 92 200 248 385 388 590 443 91 25 260 23 362 -5 114
-30 225 -92 313 -173 l74 -70 81 16 c242 49 533 37 763 -30 27 -7 51 -12 53
-10 7 6 -50 151 -92 236 -149 297 -418 561 -718 704 -462 220 -981 201 -1429
-51 l-78 -44 -78 44 c-157 88 -335 152 -510 182 -108 19 -306 26 -406 15z"/>
<path d="M6655 7633 c-362 -45 -739 -217 -1056 -482 -94 -78 -326 -289 -458
-417 -63 -61 -64 -62 -48 -85 8 -13 132 -143 275 -289 l259 -265 122 117 c308
295 480 431 656 518 153 76 240 100 380 107 141 6 230 -12 350 -71 391 -195
565 -655 401 -1060 -124 -308 -454 -528 -754 -503 l-67 5 -44 -59 c-69 -95
-308 -374 -421 -492 -56 -59 -101 -109 -99 -111 11 -9 162 -61 237 -82 192
-53 393 -72 572 -55 378 37 704 200 986 493 60 63 138 157 173 209 282 421
354 946 197 1425 -39 117 -146 326 -223 433 -247 345 -650 595 -1056 655 -94
14 -302 19 -382 9z"/>
<path d="M3598 7547 c-91 -144 -114 -381 -62 -641 32 -159 37 -170 101 -204
201 -107 379 -267 1086 -974 329 -329 602 -598 607 -598 19 0 305 314 487 536
l42 51 -564 565 c-716 718 -891 878 -1125 1030 -133 87 -249 147 -391 202
-155 59 -164 61 -181 33z"/>
<path d="M2460 7454 c-767 -427 -1068 -1337 -703 -2124 116 -250 338 -506 578
-667 400 -267 877 -325 1365 -166 207 68 446 200 633 350 107 86 347 307 480
440 l98 99 -279 285 -279 284 -169 -165 c-290 -283 -447 -408 -609 -484 -144
-68 -264 -96 -409 -96 -210 0 -382 82 -547 258 -90 96 -131 162 -169 274 -91
268 -50 550 112 766 l39 52 -25 113 c-14 61 -32 168 -41 237 -16 131 -20 450
-6 533 4 26 5 47 2 47 -3 0 -35 -16 -71 -36z"/>
<path d="M6697 6734 c-43 -8 -103 -24 -134 -37 l-55 -22 -39 -105 c-130 -348
-346 -695 -678 -1090 -124 -147 -506 -533 -674 -679 l-117 -103 -78 68 c-42
38 -119 106 -169 152 l-93 84 -55 -48 c-235 -206 -355 -297 -513 -385 l-82
-46 87 -84 c231 -222 502 -449 756 -633 l147 -107 148 107 c540 392 1080 917
1464 1425 305 403 535 829 653 1212 l28 88 -29 31 c-75 79 -211 151 -329 173
-92 18 -135 18 -238 -1z"/>


</g>
</svg>
